Coordinates
version=1
nRows=13
nColumns=40
inDegrees=yes

Units are S.I. units (second, meters, Newtons, ...)
Angles are in degrees.

endheader
time	pelvis_tilt	pelvis_list	pelvis_rotation	pelvis_tx	pelvis_ty	pelvis_tz	hip_flexion_r	hip_adduction_r	hip_rotation_r	knee_angle_r	knee_angle_r_beta	ankle_angle_r	subtalar_angle_r	mtp_angle_r	hip_flexion_l	hip_adduction_l	hip_rotation_l	knee_angle_l	knee_angle_l_beta	ankle_angle_l	subtalar_angle_l	mtp_angle_l	lumbar_extension	lumbar_bending	lumbar_rotation	arm_flex_r	arm_add_r	arm_rot_r	elbow_flex_r	pro_sup_r	wrist_flex_r	wrist_dev_r	arm_flex_l	arm_add_l	arm_rot_l	elbow_flex_l	pro_sup_l	wrist_flex_l	wrist_dev_l
     46.79000000	     -1.03394717	     -4.06770244	      5.09684129	      1.04465818	      0.93522478	      0.49243438	      9.19941678	      2.12009551	    -16.60748902	     14.64860612	     14.64860612	      8.78202861	      1.11837527	     -7.97888560	     29.92460127	    -12.91160163	      0.41992822	     51.15470609	     51.15470609	     10.55208786	    -16.51369916	      8.81889535	    -10.57546047	      6.43420793	      3.25589985	     23.15918467	    -18.02822506	     -5.06640081	     54.17895584	     44.23541281	      0.00000000	      0.00000000	      2.52000240	     -8.79203611	     -0.01266750	     30.19782805	     44.03924051	      0.00000000	      0.00000000
     46.80350000	     -1.25058279	     -3.90769496	      5.45481805	      1.04321234	      0.93532027	      0.49310811	      8.98678669	      2.05293848	    -16.71313066	     14.39701995	     14.39701995	      8.88921681	      0.88423959	     -8.04153252	     30.78120663	    -12.61642250	      0.32091421	     47.95643362	     47.95643362	     10.52050219	    -16.64943407	      8.89615109	    -10.48201015	      6.20981642	      2.99764400	     25.24740711	    -18.08444746	     -5.25538068	     55.81188774	     44.21365893	      0.00000000	      0.00000000	      1.09910481	     -8.43644979	      0.18348914	     29.15659035	     44.01836276	      0.00000000	      0.00000000
     46.81700000	     -1.43131184	     -3.79598646	      5.80769118	      1.04182499	      0.93539337	      0.49378822	      8.70894147	      2.05371952	    -16.81983576	     14.08976713	     14.08976713	      8.99370352	      0.64759562	     -8.08670615	     31.34898467	    -12.33062977	      0.19311156	     44.35666426	     44.35666426	     10.24726091	    -16.64335708	      8.84155723	    -10.44160608	      6.04822558	      2.79718726	     27.20886664	    -18.20840082	     -5.40381323	     57.81544708	     44.17657267	      0.00000000	      0.00000000	     -0.31455839	     -8.06981066	      0.36573074	     28.21205680	     43.99881319	      0.00000000	      0.00000000
     46.83050000	     -1.60677678	     -3.76981639	      6.14974948	      1.04054922	      0.93526867	      0.49437591	      8.41971511	      2.14760686	    -16.90695366	     13.74135255	     13.74135255	      8.96132448	      0.39651245	     -8.47542213	     31.63428856	    -12.10012234	      0.00771421	     40.35045908	     40.35045908	      8.89907364	    -16.79463618	      6.31242831	    -10.44704171	      6.01735444	      3.25514265	     28.07547406	    -19.14149358	     -5.51982399	     62.10408363	     44.13650259	      0.00000000	      0.00000000	     -1.16704482	     -7.56100432	      0.86470677	     26.86467188	     44.06101518	      0.00000000	      0.00000000
     46.84400000	     -1.75488091	     -3.66594474	      6.46821152	      1.03931855	      0.93523950	      0.49484009	      8.13615291	      2.13529772	    -17.01200197	     13.50038936	     13.50038936	      9.12284979	      0.22046276	     -8.49407083	     31.77651051	    -11.71455091	     -0.14203149	     36.42654494	     36.42654494	      8.64826630	    -16.22622137	      6.95224198	    -10.41210795	      5.85963867	      3.19122316	     30.02696166	    -19.27924746	     -5.81974305	     63.56128268	     44.12024808	      0.00000000	      0.00000000	     -2.45799688	     -7.25662378	      1.02632841	     26.14632281	     44.03451423	      0.00000000	      0.00000000
     46.85750000	     -1.91647518	     -3.64214228	      6.79078887	      1.03810783	      0.93502704	      0.49516286	      7.87835776	      2.18969497	    -17.15765683	     13.26083333	     13.26083333	      9.28002032	      0.10735929	     -8.53424448	     31.89613514	    -11.35257238	     -0.19924969	     32.64657944	     32.64657944	      8.33191674	    -15.40644836	      7.60987859	    -10.38202175	      5.81744776	      3.09093047	     31.90554205	    -19.39536211	     -6.07227990	     65.25688644	     44.09201694	      0.00000000	      0.00000000	     -3.65318865	     -6.89857234	      1.19348302	     25.48074522	     44.00540966	      0.00000000	      0.00000000
     46.87100000	     -1.97266060	     -3.67302326	      7.11625899	      1.03708464	      0.93487755	      0.49538243	      7.49134038	      2.31258681	    -17.37100684	     13.00088516	     13.00088516	      9.43970407	      0.08545416	     -8.59813810	     31.84937811	    -11.02039759	     -0.16404799	     29.05856108	     29.05856108	      7.98332831	    -14.40398876	      8.25452465	    -10.43212032	      5.83878555	      2.86283618	     33.60305975	    -19.38529898	     -6.30246614	     67.52964170	     44.04841140	      0.00000000	      0.00000000	     -4.82749209	     -6.60002946	      1.41326256	     24.77296123	     43.97476301	      0.00000000	      0.00000000
     46.88450000	     -2.18198624	     -3.85319415	      7.42354504	      1.03599278	      0.93431312	      0.49545893	      7.35434736	      2.54299042	    -17.61148894	     12.84904118	     12.84904118	      9.60586163	      0.05049871	     -8.68121955	     32.10472495	    -10.82157297	     -0.07616672	     25.97371429	     25.97371429	      7.70949374	    -13.05736229	      8.84205814	    -10.25097198	      6.02550359	      2.99254294	     35.26457732	    -19.72289582	     -6.55628232	     68.98374343	     44.02381201	      0.00000000	      0.00000000	     -5.73544363	     -6.23155668	      1.54025144	     24.36084774	     43.94843745	      0.00000000	      0.00000000
     46.89800000	     -2.15522262	     -3.87926954	      7.72694528	      1.03526297	      0.93422929	      0.49535153	      6.76033740	      2.65595388	    -17.98422567	     12.41010206	     12.41010206	      9.77349429	      0.47851072	     -8.80148866	     31.99618893	    -10.52723739	     -0.15506661	     23.17929224	     23.17929224	      7.49599257	    -11.40562669	      9.47206301	    -10.45493892	      6.08905772	      3.19373898	     35.76488434	    -20.03230868	     -7.09782096	     73.57089490	     43.95804211	      0.00000000	      0.00000000	     -6.53035024	     -6.04488952	      2.21289992	     23.84924594	     43.89771481	      0.00000000	      0.00000000
     46.91150000	     -2.20802934	     -3.93379318	      7.97441694	      1.03455963	      0.93399199	      0.49514744	      6.36812646	      2.77794017	    -18.15817450	     12.17885079	     12.17885079	      9.98918971	      0.52477106	     -8.84342962	     31.99807155	    -10.26384098	     -0.23751511	     20.83506434	     20.83506434	      7.21869025	     -9.82848459	      9.97932303	    -10.39580020	      6.13848216	      3.18798013	     37.18951837	    -20.05648576	     -7.37293932	     75.06972052	     43.93974727	      0.00000000	      0.00000000	     -7.37145631	     -5.84311730	      2.43239632	     23.44429598	     43.86325671	      0.00000000	      0.00000000
     46.92500000	     -2.21764350	     -4.05682819	      8.23441148	      1.03398339	      0.93379114	      0.49483120	      5.83436814	      2.99046669	    -18.44731369	     11.76548907	     11.76548907	     10.15325682	      0.86475804	     -8.83938153	     32.07296733	    -10.10742512	     -0.35440858	     19.12056876	     19.12056876	      7.04125111	     -8.15768489	     10.29220954	    -10.42906565	      6.28080931	      3.06568409	     38.42660711	    -19.92423064	     -7.66557135	     77.25444135	     43.90648620	      0.00000000	      0.00000000	     -8.20767462	     -5.66083105	      2.73058132	     23.18385123	     43.82071195	      0.00000000	      0.00000000
     46.93850000	     -2.31562681	     -4.23920096	      8.43825793	      1.03342983	      0.93339887	      0.49442696	      5.47716337	      3.23328597	    -18.68149251	     11.49117589	     11.49117589	     10.34699839	      1.06990626	     -8.85532166	     32.28222514	     -9.99788920	     -0.35786321	     17.91401876	     17.91401876	      6.77243323	     -6.96306738	     10.49700564	    -10.28769813	      6.47912610	      3.17375726	     39.62510275	    -19.96312372	     -7.88432830	     78.64910887	     43.88475600	      0.00000000	      0.00000000	     -8.82826164	     -5.47492899	      2.87676685	     23.06840225	     43.79494420	      0.00000000	      0.00000000
     46.95200000	     -2.20754448	     -4.33128538	      8.63727723	      1.03335285	      0.93340090	      0.49384488	      4.67246915	      3.44737014	    -19.01786157	     10.88169728	     10.88169728	     10.52545108	      1.71778441	     -8.77333824	     32.20136765	     -9.91752272	     -0.73863487	     17.16205108	     17.16205108	      6.57555165	     -5.61856664	     10.41132136	    -10.35843645	      6.62017498	      3.01543892	     40.47779924	    -19.65473958	     -8.15420572	     81.18134636	     43.83792931	      0.00000000	      0.00000000	     -9.65449136	     -5.41055214	      3.13582773	     23.09264813	     43.75463446	      0.00000000	      0.00000000
